<?xml version="1.0" standalone="no"?><svg xmlns="http://www.w3.org/2000/svg" viewBox="0 0 1440 320"><path fill="#f7c945" fill-opacity="1" d="M0,64L24,53.3C48,43,96,21,144,42.7C192,64,240,128,288,160C336,192,384,192,432,170.7C480,149,528,107,576,90.7C624,75,672,85,720,117.3C768,149,816,203,864,224C912,245,960,235,1008,197.3C1056,160,1104,96,1152,96C1200,96,1248,160,1296,165.3C1344,171,1392,117,1416,90.7L1440,64L1440,320L1416,320C1392,320,1344,320,1296,320C1248,320,1200,320,1152,320C1104,320,1056,320,1008,320C960,320,912,320,864,320C816,320,768,320,720,320C672,320,624,320,576,320C528,320,480,320,432,320C384,320,336,320,288,320C240,320,192,320,144,320C96,320,48,320,24,320L0,320Z"></path></svg>