<?xml version="1.0" standalone="no"?><svg xmlns="http://www.w3.org/2000/svg" viewBox="0 0 1440 320"><path fill="#f7c945" fill-opacity="1" d="M0,192L34.3,213.3C68.6,235,137,277,206,256C274.3,235,343,149,411,112C480,75,549,85,617,117.3C685.7,149,754,203,823,192C891.4,181,960,107,1029,80C1097.1,53,1166,75,1234,90.7C1302.9,107,1371,117,1406,122.7L1440,128L1440,320L1405.7,320C1371.4,320,1303,320,1234,320C1165.7,320,1097,320,1029,320C960,320,891,320,823,320C754.3,320,686,320,617,320C548.6,320,480,320,411,320C342.9,320,274,320,206,320C137.1,320,69,320,34,320L0,320Z"></path></svg>